<svg xmlns="http://www.w3.org/2000/svg"><defs><font horiz-adv-x="588"><font-face alphabetic="0" ascent="1000" descent="-250" panose-1="0 0 0 0 0 0 0 0 0 0"/><glyph horiz-adv-x="280" unicode="&#x20;"/><glyph d="M87 241Q80 304 75 371T66 505 63 630V700H171V630Q171 568 168 500T160 366 147 241H87ZM114-11Q81-11 63 8T45 64Q45 97 64 118T114 139Q147 139 165 120T183 64Q183 31 164 10T114-11Z" horiz-adv-x="236" unicode="&#x21;"/><glyph d="M245 442 269 700H385L305 442H245ZM37 442 60 700H178L97 442H37Z" horiz-adv-x="412" unicode="&#x26;&#x71;&#x75;&#x6f;&#x74;&#x3b;"/><glyph d="M367 0 487 700H577L457 0H367ZM31 173V256H610V173H31ZM101 0 221 700H311L191 0H101ZM69 453V536H647V453H69Z" horiz-adv-x="678" unicode="&#x23;"/><glyph d="M314-10Q228-10 163 24T50 126L124 211Q173 141 218 114T325 87Q363 87 394 99T443 132 461 180Q461 198 455 214T437 243 405 267 359 286 299 301Q227 315 180 343T109 414 85 514Q85 556 103 592T154 654 231 695 326 710Q407 710 467 679T563 587L487 512Q457 561 416 587T323 613Q284 613 255 601T210 568 193 517Q193 496 201 479T225 448 270 424 337 405Q392 393 435 375T508 331 553 275 569 208Q569 141 538 92T450 17 314-10ZM254-91V363L351 330V-91H254ZM391 330 294 363V782H391V330Z" horiz-adv-x="624" unicode="&#x24;"/><glyph d="M129 0 592 700H695L227 0H129ZM193 329Q148 329 114 353T60 420 40 518Q40 573 59 616T114 684 194 709Q239 709 273 685T327 617 347 518Q347 465 327 422T272 354 193 329ZM194 404Q215 404 230 418T254 457 263 518Q263 553 255 579T231 619 193 633Q172 633 156 619T132 579 123 518Q123 483 131 458T156 418 194 404ZM636-9Q591-9 557 16T502 83 482 180Q482 235 501 278T556 346 636 371Q681 371 715 347T769 279 789 180Q789 127 769 84T715 16 636-9ZM636 65Q657 65 673 79T697 119 706 180Q706 215 698 240T673 280 636 295Q614 295 598 281T574 241 565 180Q565 145 573 120T598 80 636 65Z" horiz-adv-x="839" unicode="&#x25;"/><glyph d="M575 0 484 97 468 115 295 308Q270 336 247 365T207 424 179 480 168 532Q168 583 194 623T267 687 375 710Q420 710 459 694T526 648 568 579L490 529Q471 575 444 596T375 617Q344 617 323 608T291 580 280 535Q280 513 292 487T324 433 363 383 398 343L537 188 566 156 709 0H575ZM306-10Q235-10 177 20T85 101 50 212Q50 291 93 349T221 438L285 361Q221 347 190 315T159 227Q159 185 179 153T236 103 326 85Q371 85 408 102T476 152 525 229 554 329H646Q638 268 618 216T567 122 497 51 409 6 306-10Z" horiz-adv-x="739" unicode="&#x26;&#x61;&#x6d;&#x70;&#x3b;"/><glyph d="M37 442 60 700H178L97 442H37Z" horiz-adv-x="205" unicode="&#x26;&#x61;&#x70;&#x6f;&#x73;&#x3b;"/><glyph d="M290-186Q168-110 104 4T40 258Q40 397 104 511T291 702L346 640Q244 569 191 471T137 258Q137 144 190 46T346-124L290-186Z" horiz-adv-x="366" unicode="&#x28;"/><glyph d="M75-186 20-124Q122-53 175 45T229 258Q229 372 176 470T20 640L76 702Q198 626 262 512T326 258Q326 119 262 5T75-186Z" horiz-adv-x="366" unicode="&#x29;"/><glyph d="M159 376 167 491H172L69 421 32 486 144 540 142 535 30 589 68 653 172 583 167 585 159 700H234L225 573 217 581 320 651 357 586 244 531V542L356 487 319 423 215 493 226 491 234 376H159Z" horiz-adv-x="387" unicode="&#x2a;"/><glyph d="M45 235V325H546V235H45ZM242 42V525H347V42H242Z" horiz-adv-x="591" unicode="&#x2b;"/><glyph d="M88-179 50-133Q85-113 107-87T129-42Q129-32 124-23T103 4Q83 23 77 36T71 64Q71 88 88 102T132 117Q157 117 177 103T209 63 221 4Q221-26 211-54T183-106 141-149 88-179Z" horiz-adv-x="267" unicode="&#x2c;"/><glyph d="M53 235V337H341V235H53Z" horiz-adv-x="394" unicode="&#x2d;"/><glyph d="M114-11Q81-11 63 8T45 64Q45 97 64 118T114 139Q147 139 165 120T183 64Q183 31 164 10T114-11Z" horiz-adv-x="228" unicode="&#x2e;"/><glyph d="M18-132 430 700H529L118-132H18Z" horiz-adv-x="557" unicode="&#x2f;"/><glyph d="M303-10Q223-10 166 34T77 158 46 350Q46 461 77 541T165 666 303 710Q383 710 441 666T530 542 561 350Q561 239 530 159T441 34 303-10ZM303 88Q376 88 416 156T456 350Q456 475 416 543T303 612Q230 612 190 544T150 350Q150 225 190 157T303 88Z" horiz-adv-x="607" unicode="&#x30;"/><glyph d="M217 49V617L254 589 116 516 87 610 274 710H326V49H217ZM106 0V104H440V0H106Z" horiz-adv-x="500" unicode="&#x31;"/><glyph d="M93 0 60 82 274 323Q291 341 309 364T345 413 372 462 383 509Q383 541 371 563T335 598 278 610Q249 610 221 593T170 545 134 473L51 525Q68 583 102 624T185 688 291 710Q350 710 396 686T468 618 494 517Q494 494 489 470T473 421 445 368 405 310 351 247L192 74 172 104H516V0H93Z" horiz-adv-x="548" unicode="&#x32;"/><glyph d="M251-10Q177-10 123 24T20 138L104 191Q129 154 153 131T204 96 259 85Q294 85 324 102T372 151 390 221Q390 260 376 287T335 329 271 344Q254 344 236 341T196 331 150 314L120 393 336 631 357 600H59V700H460L480 660 251 406 226 432Q234 436 252 439T283 443Q327 443 365 427T432 381 477 312 494 227Q494 159 462 106T374 21 251-10Z" horiz-adv-x="529" unicode="&#x33;"/><glyph d="M352 0V564L377 558 147 277 143 289H578V190H76L30 280 373 700H456V0H352Z" horiz-adv-x="620" unicode="&#x34;"/><glyph d="M257-7Q188-7 132 24T39 115L99 182Q146 130 181 111T257 92Q298 92 331 110T383 159 403 228Q403 268 385 299T335 349 265 368Q246 368 229 366T188 354 125 326L68 403 109 700H487V600H177L198 619 165 397 140 426Q150 436 174 445T227 461 284 468Q348 468 398 439T478 357 508 238Q508 169 475 114T385 26 257-7Z" horiz-adv-x="568" unicode="&#x35;"/><glyph d="M283 0Q231 0 187 18T110 70 59 148 40 247Q40 274 47 307T70 381 108 465 159 558L250 712H355L359 702 249 517Q219 466 196 420T156 334 132 260L108 363Q127 394 149 417T196 457 250 481 308 489Q366 489 414 458T492 374 522 260Q522 185 492 127T407 34 283 0ZM283 100Q322 100 352 118T400 170 418 247Q418 284 400 316T352 369 285 389Q244 389 212 370T162 319 144 248Q144 206 162 173T211 120 283 100Z" horiz-adv-x="557" unicode="&#x36;"/><glyph d="M112 0 402 632 414 600H60V700H493L507 631 228 0H112Z" horiz-adv-x="542" unicode="&#x37;"/><glyph d="M289-3Q224-3 171 24T85 98 53 200Q53 231 61 258T87 309 130 351 188 385L182 364Q156 374 136 388T100 422 78 463 70 509Q70 562 99 605T178 674 289 700Q350 700 399 674T478 605 508 509Q508 485 501 463T479 423 444 390 395 364L392 381Q422 369 446 350T489 307 516 256 526 200Q526 143 494 97T409 24 289-3ZM289 97Q326 97 355 111T402 149 419 204Q419 237 402 262T356 303 289 318Q252 318 223 303T177 263 160 204Q160 174 177 150T223 112 289 97ZM289 414Q321 414 346 426T386 458 401 506Q401 533 387 554T347 587 289 600Q257 600 232 588T192 554 177 506Q177 479 191 459T231 426 289 414Z" horiz-adv-x="579" unicode="&#x38;"/><glyph d="M228 0 224 10 432 452 435 369Q417 339 396 316T349 277 296 252 241 243Q184 243 136 273T59 353 30 462Q30 533 62 589T149 679 274 712Q324 712 368 694T445 644 497 569 516 478Q516 453 511 425T495 361 464 280 417 174L334 0H228ZM264 343Q303 343 334 360T382 407 400 474Q400 513 383 544T336 594 266 612Q230 612 202 595T158 547 141 475Q141 440 157 410T202 362 264 343Z" horiz-adv-x="551" unicode="&#x39;"/><glyph d="M114-10Q81-10 63 9T45 65Q45 98 64 119T114 140Q147 140 165 121T183 65Q183 32 164 11T114-10ZM114 385Q81 385 63 404T45 460Q45 493 64 514T114 535Q147 535 165 516T183 460Q183 427 164 406T114 385Z" horiz-adv-x="228" unicode="&#x3a;"/><glyph d="M339-179 301-133Q336-113 358-87T380-42Q380-32 375-23T354 4Q334 23 328 36T322 64Q322 88 339 102T383 117Q408 117 428 103T460 63 472 4Q472-26 462-54T434-106 392-149 339-179ZM132 385Q99 385 81 404T63 460Q63 493 82 514T132 535Q165 535 183 516T201 460Q201 427 182 406T132 385Z" horiz-adv-x="262" unicode="&#x3b;"/><glyph d="M411 4 50 211V292L411 499 459 424 100 218V285L459 79 411 4Z" horiz-adv-x="524" unicode="&#x26;&#x6c;&#x74;&#x3b;"/><glyph d="M50 331V421H516V331H50ZM50 142V231H516V142H50Z" horiz-adv-x="566" unicode="&#x3d;"/><glyph d="M113 4 65 79 424 285V218L65 424 113 499 474 292V211L113 4Z" horiz-adv-x="524" unicode="&#x26;&#x67;&#x74;&#x3b;"/><glyph d="M193 211 167 352Q206 362 237 374T290 401 328 433 350 469 358 511Q358 540 343 563T300 599 239 612Q199 612 162 585T97 507L22 570Q65 636 124 672T249 709Q312 709 362 683T441 612 471 511Q471 478 458 447T419 387 361 337 287 301L270 211H193ZM158 64Q158 97 177 118T227 139Q260 139 278 120T296 64Q296 31 277 10T227-11Q194-11 176 8T158 64Z" horiz-adv-x="511" unicode="&#x3f;"/><glyph d="M414-162Q327-162 258-136T140-61 66 56 40 206Q40 323 81 416T196 575 367 675 576 710Q656 710 720 688T830 623 900 524 925 396Q925 328 906 267T851 158 770 83 669 55Q634 55 608 67T566 102 551 155Q551 170 554 187T560 222L574 202Q559 155 534 122T474 72 400 55Q357 55 324 78T271 142 252 237Q252 284 269 332T318 420 394 485 491 510Q522 510 546 495T586 453 605 390L581 331 607 501H708L657 193Q654 174 659 162T676 143 700 137Q730 137 756 157T801 212 831 294 842 391Q842 466 810 519T718 601 572 630Q470 630 387 602T246 519 156 386 124 209Q124 140 143 87T200-5 292-62 417-82Q464-82 498-76T563-56 632-22L669-89Q610-119 568-134T490-156 414-162ZM423 140Q457 140 488 161T542 216 570 286Q573 304 575 317T577 342Q577 368 567 386T539 415 495 425Q456 425 424 397T373 324 354 232Q354 189 372 165T423 140Z" horiz-adv-x="965" unicode="&#x40;"/><glyph d="M25 0 296 700H406L675 0H560L400 422Q397 429 389 456T369 516 349 576 337 612L360 613Q354 596 346 570T328 515 309 461 294 418L135 0H25ZM145 174 185 278H503L549 174H145Z" horiz-adv-x="700" unicode="&#x41;"/><glyph d="M98 0V700H390Q457 700 503 680T572 621 596 524Q596 467 565 427T477 372V392Q524 382 559 357T613 293 633 206Q633 156 618 118T572 53 498 14 400 0H98ZM206 104H394Q435 104 463 116T507 151 523 208Q523 239 507 261T460 294 389 306H206V104ZM206 410H384Q414 410 437 422T474 455 488 503Q488 548 458 572T372 596H206V410Z" horiz-adv-x="681" unicode="&#x42;"/><glyph d="M382-10Q309-10 248 16T142 90 73 205 48 350Q48 425 74 489T148 603 257 679 391 706Q442 706 490 691T578 648 643 585L571 510Q542 539 513 558T453 588 391 598Q342 598 300 580T226 528 176 450 158 350Q158 293 175 247T225 167 301 117 400 99Q433 99 465 108T525 134 576 174L630 86Q607 59 568 37T480 3 382-10Z" horiz-adv-x="679" unicode="&#x43;"/><glyph d="M98 0V700H372Q447 700 507 675T611 603 677 492 700 350Q700 272 677 208T612 97 508 25 372 0H98ZM206 93 203 104H367Q420 104 461 121T531 169 575 247 590 350Q590 407 575 452T531 530 461 579 367 596H200L206 605V93Z" horiz-adv-x="748" unicode="&#x44;"/><glyph d="M98 0V700H539V596H206V104H539V0H98ZM147 307V411H484V307H147Z" horiz-adv-x="614" unicode="&#x45;"/><glyph d="M98 0V700H206V0H98ZM146 298V402H507V298H146ZM146 596V700H552V596H146Z" horiz-adv-x="602" unicode="&#x46;"/><glyph d="M411-10Q335-10 269 17T153 94 76 208 48 350Q48 425 75 490T152 603 268 679 410 706Q463 706 513 691T605 649 672 587L602 514Q572 543 541 562T476 591 410 601Q356 601 311 582T231 529 177 450 158 350Q158 298 178 252T233 170 315 115 414 95Q453 95 488 106T550 139 592 187 607 246V266L622 252H408V359H718Q720 348 721 338T722 318 723 299Q723 230 699 174T633 76 534 13 411-10Z" horiz-adv-x="766" unicode="&#x47;"/><glyph d="M555 0V700H663V0H555ZM98 0V700H206V0H98ZM145 297V401H603V297H145Z" horiz-adv-x="761" unicode="&#x48;"/><glyph d="M72 0V100H185V600H72V700H406V600H293V100H406V0H72Z" horiz-adv-x="478" unicode="&#x49;"/><glyph d="M256-10Q222-10 191-1T134 25 86 65 50 117L118 188Q139 158 156 140T190 112 222 99 256 95Q292 95 319 111T361 157 376 223V600H248V700H592V600H484V213Q484 165 468 125T421 54 349 7 256-10Z" horiz-adv-x="642" unicode="&#x4a;"/><glyph d="M188 212 182 333 549 700H691L188 212ZM98 0V700H206V0H98ZM562 0 294 358 374 427 697 0H562Z" horiz-adv-x="732" unicode="&#x4b;"/><glyph d="M98 0V700H206V104H534V0H98Z" horiz-adv-x="599" unicode="&#x4c;"/><glyph d="M98 0V700H204L459 285 408 286 666 700H766V0H658V287Q658 377 662 449T678 592L692 555 463 201H397L175 551 186 592Q197 525 201 455T206 287V0H98Z" horiz-adv-x="864" unicode="&#x4d;"/><glyph d="M98 0V700H195L623 127 607 118Q603 143 600 172T595 235 591 306 588 385 587 470V700H695V0H596L175 552 186 566Q191 505 194 463T200 391 204 343 205 312 206 291V0H98Z" horiz-adv-x="793" unicode="&#x4e;"/><glyph d="M391-10Q317-10 255 17T146 92 74 206 48 350Q48 428 73 493T145 607 254 683 391 710Q465 710 527 683T636 607 708 493 734 350Q734 273 709 208T637 93 528 17 391-10ZM391 95Q442 95 484 114T558 167 606 248 624 350Q624 405 607 451T558 532 485 586 391 605Q340 605 298 586T224 533 175 453 158 350Q158 295 175 248T223 167 297 114 391 95Z" horiz-adv-x="782" unicode="&#x4f;"/><glyph d="M98 0V700H383Q440 700 486 672T561 594 589 485Q589 425 561 376T487 298 383 268H206V0H98ZM206 372H381Q408 372 430 387T465 428 479 485Q479 516 466 541T430 581 381 596H206V372Z" horiz-adv-x="634" unicode="&#x50;"/><glyph d="M613-110 348 237 437 296 699-48 613-110ZM391-10Q317-10 255 17T146 92 74 206 48 350Q48 428 73 493T145 607 254 683 391 710Q465 710 527 683T636 607 708 493 734 350Q734 273 709 208T637 93 528 17 391-10ZM391 95Q442 95 484 114T558 167 606 248 624 350Q624 405 607 451T558 532 485 586 391 605Q340 605 298 586T224 533 175 453 158 350Q158 295 175 248T223 167 297 114 391 95Z" horiz-adv-x="782" unicode="&#x51;"/><glyph d="M98 0V700H396Q456 700 506 671T587 591 617 477Q617 420 587 371T507 293 396 263H206V0H98ZM514 0 336 316 447 341 645-1 514 0ZM206 367H406Q435 367 458 381T494 421 507 478Q507 513 491 539T445 581 378 596H206V367Z" horiz-adv-x="695" unicode="&#x52;"/><glyph d="M314-10Q257-10 209 5T121 50 50 126L124 211Q173 141 218 114T325 87Q363 87 394 99T443 132 461 180Q461 198 455 214T437 243 405 267 359 286 299 301Q245 312 205 330T138 375 98 436 85 514Q85 556 103 592T154 654 231 695 326 710Q380 710 425 696T505 655 563 587L487 512Q467 545 442 567T387 601 323 613Q284 613 255 601T210 568 193 517Q193 496 201 479T225 448 270 424 337 405Q392 393 435 375T508 331 553 275 569 208Q569 141 538 92T450 17 314-10Z" horiz-adv-x="624" unicode="&#x53;"/><glyph d="M231 0V596H35V700H541V596H339V0H231Z" horiz-adv-x="576" unicode="&#x54;"/><glyph d="M370-6Q289-6 225 29T125 127 88 269V701H196V278Q196 227 220 187T283 122 370 98Q420 98 460 122T525 186 549 278V701H652V269Q652 190 616 128T515 30 370-6Z" horiz-adv-x="740" unicode="&#x55;"/><glyph d="M304 0 24 700H147L314 275Q326 244 335 219T352 174 365 135 377 99L351 98Q358 122 366 148T384 205 410 275L565 700H691L409 0H304Z" horiz-adv-x="715" unicode="&#x56;"/><glyph d="M247 0 24 700H139L274 262Q280 246 285 225T294 181 301 140 308 109L279 110Q294 163 302 192T316 236 325 263L451 579H548L670 263Q680 239 687 216T701 169 714 119L688 112Q693 139 695 154T700 180 704 199 710 224 723 265L856 700H972L749 0H674L489 438 498 434 320 0H247Z" horiz-adv-x="996" unicode="&#x57;"/><glyph d="M524 0 307 314 29 700H166L378 390 661 0H524ZM24 0 291 381 358 302 151 0H24ZM394 325 328 401 524 700H651L394 325Z" horiz-adv-x="685" unicode="&#x58;"/><glyph d="M286 0V349L293 300 10 700H140L356 390 331 393 526 700H650L379 289 394 357V0H286Z" horiz-adv-x="660" unicode="&#x59;"/><glyph d="M60 0V79L459 613 474 596H86V700H593V622L196 87 180 104H604V0H60Z" horiz-adv-x="659" unicode="&#x5a;"/><glyph d="M80-190V700H337V621H167L173 629V-123L163-111H337V-190H80Z" horiz-adv-x="403" unicode="&#x5b;"/><glyph d="M446-107 48 700H147L547-107H446Z" horiz-adv-x="557" unicode="&#x5c;"/><glyph d="M66-190V-111H236L230-119V633L240 621H66V700H323V-190H66Z" horiz-adv-x="403" unicode="&#x5d;"/><glyph d="M29 368 240 727H340L551 368H436L281 633 301 636 142 368H29Z" horiz-adv-x="579" unicode="&#x5e;"/><glyph d="M53-160V-82H637V-160H53Z" horiz-adv-x="690" unicode="&#x5f;"/><glyph d="M320 606 146 700 211 782 354 657 320 606Z" horiz-adv-x="500" unicode="&#x60;"/><glyph d="M274-10Q209-10 156 26T70 124 38 264Q38 343 70 404T158 501 283 536Q324 536 358 524T417 491 459 441 480 381L457 389V525H561V0H457V125L481 132Q475 105 457 80T410 34 347 2 274-10ZM301 85Q348 85 384 108T440 171 461 264Q461 315 441 355T384 418 301 441Q255 441 220 418T164 355 143 264Q143 212 163 172T219 108 301 85Z" horiz-adv-x="633" unicode="&#x61;"/><glyph d="M348-10Q314-10 281 1T220 30 174 71 149 117L175 131V3H72V740H175V405L159 414Q164 437 181 458T224 497 282 525 345 536Q416 536 471 501T558 405 590 264Q590 185 559 123T472 26 348-10ZM331 84Q377 84 413 107T470 171 491 264Q491 315 471 355T414 419 331 442Q284 442 248 419T191 356 170 264Q170 212 191 172T248 108 331 84Z" horiz-adv-x="630" unicode="&#x62;"/><glyph d="M295-10Q222-10 165 26T74 124 40 263Q40 340 73 402T164 500 295 536Q365 536 422 508T510 430L453 360Q437 383 412 402T359 432 305 443Q257 443 220 420T160 355 138 263Q138 212 161 172T222 107 306 83Q333 83 358 92T408 119 453 163L510 93Q478 48 419 19T295-10Z" horiz-adv-x="535" unicode="&#x63;"/><glyph d="M291-10Q219-10 163 25T73 122 40 263Q40 342 72 403T161 500 288 536Q327 536 363 524T429 490 474 443 491 391L461 389V740H564V0H461V125H481Q481 101 465 78T423 34 362 2 291-10ZM305 79Q352 79 388 103T444 168 465 263Q465 316 445 357T388 423 305 447Q258 447 222 423T166 358 145 263Q145 210 165 169T222 103 305 79Z" horiz-adv-x="634" unicode="&#x64;"/><glyph d="M317-10Q236-10 174 24T76 119 40 257Q40 319 60 370T115 458 200 516 308 537Q359 537 403 518T479 464 529 384 546 282L545 238H116L93 320H456L441 303V327Q438 360 419 386T371 427 308 442Q254 442 217 422T161 362 142 264Q142 209 165 169T230 106 327 84Q366 84 399 97T472 144L524 71Q500 47 466 29T393 1 317-10Z" horiz-adv-x="586" unicode="&#x65;"/><glyph d="M129 0V584Q129 629 149 664T204 719 285 739Q317 739 345 727T390 695L355 616Q342 628 327 635T297 643Q276 643 262 637T240 617 233 584V0H181Q168 0 155 0T129 0ZM45 421V516H357V421H45Z" horiz-adv-x="393" unicode="&#x66;"/><glyph d="M307-230Q251-230 196-213T106-167L144-87Q164-102 191-113T248-131 307-138Q362-138 399-120T455-67 474 20V121L485 114Q480 83 453 55T384 8 300-10Q225-10 167 25T74 122 40 263Q40 342 73 403T165 500 297 536Q327 536 355 529T407 508 450 478 481 444 496 410L474 402V525H577V32Q577-31 559-79T505-161 420-212 307-230ZM311 85Q360 85 398 108T457 171 478 263Q478 315 457 355T398 419 311 442Q263 442 226 419T167 355 145 263Q145 212 166 172T225 108 311 85Z" horiz-adv-x="649" unicode="&#x67;"/><glyph d="M72 0V740H175V417L157 405Q167 440 196 469T265 517 347 536Q407 536 447 513T507 441 527 320V0H424V313Q424 358 412 387T375 430 313 442Q283 442 258 433T215 406 186 367 175 318V0H124Q111 0 98 0T72 0Z" horiz-adv-x="595" unicode="&#x68;"/><glyph d="M89 0V525H192V0H89ZM139 641Q106 641 88 658T70 706Q70 735 88 753T139 771Q172 771 190 754T208 706Q208 677 190 659T139 641Z" horiz-adv-x="278" unicode="&#x69;"/><glyph d="M9-197-30-118Q9-118 34-105T73-65 86 1V525H189V-24Q189-75 167-114T104-175 9-197ZM140 641Q107 641 89 658T71 706Q71 735 89 753T140 771Q173 771 191 754T209 706Q209 677 191 659T140 641Z" horiz-adv-x="265" unicode="&#x6a;"/><glyph d="M166 164 161 276 412 525H551L166 164ZM72 0V740H175V0H72ZM426 0 228 231 301 298 558 0H426Z" horiz-adv-x="568" unicode="&#x6b;"/><glyph d="M74 0V740H177V0H74Z" horiz-adv-x="251" unicode="&#x6c;"/><glyph d="M70 0V525H174V413L155 401Q163 427 180 451T223 493 278 523 339 534Q384 534 418 519T474 474 506 399L490 403 497 420Q508 443 527 463T572 500 625 525 680 534Q739 534 777 510T835 437 855 315V0H751V309Q751 354 740 382T705 425 646 439Q618 439 594 430T551 403 523 364 513 314V0H409V311Q409 352 397 380T362 424 306 439Q278 439 254 430T212 404 184 365 174 316V0H70Z" horiz-adv-x="921" unicode="&#x6d;"/><glyph d="M72 0V525H175V417L157 405Q167 440 196 469T265 517 347 536Q407 536 447 513T507 441 527 320V0H424V313Q424 358 412 387T375 430 313 442Q283 442 258 433T215 406 186 367 175 318V0H124Q111 0 98 0T72 0Z" horiz-adv-x="595" unicode="&#x6e;"/><glyph d="M308-10Q231-10 171 25T75 122 40 263Q40 342 75 403T170 500 308 536Q384 536 444 501T540 404 575 263Q575 184 540 123T445 26 308-10ZM308 84Q355 84 392 107T450 171 470 263Q471 315 450 355T392 419 308 442Q261 442 224 419T165 355 145 263Q144 212 165 172T223 108 308 84Z" horiz-adv-x="615" unicode="&#x6f;"/><glyph d="M72-220V525H176V405L160 414Q166 444 194 471T262 516 346 534Q417 534 472 499T559 403 591 263Q591 185 560 124T473 27 349-9Q303-9 260 9T187 57 150 117L176 131V-220H72ZM332 86Q378 86 414 109T471 172 492 263Q492 314 472 353T415 416 332 439Q285 439 249 417T192 354 171 263Q171 212 192 172T249 109 332 86Z" horiz-adv-x="631" unicode="&#x70;"/><glyph d="M455-220V125H475Q475 101 459 78T416 34 356 2 288-10Q217-10 161 25T73 122 40 263Q40 342 72 403T159 500 285 536Q324 536 359 523T423 489 468 443 485 391L455 389V526H558V-220H455ZM299 85Q346 85 382 108T438 171 459 263Q459 315 439 355T382 419 299 442Q252 442 216 419T160 355 139 263Q139 212 159 172T216 108 299 85Z" horiz-adv-x="630" unicode="&#x71;"/><glyph d="M72 0V525H176V360L166 400Q177 438 203 469T264 518 336 536Q353 536 368 533T393 526L366 414Q354 419 340 422T311 426Q284 426 260 416T217 387 187 344 176 290V0H72Z" horiz-adv-x="403" unicode="&#x72;"/><glyph d="M247-10Q181-10 128 13T40 81L110 141Q140 106 175 91T256 75Q274 75 289 79T316 93 334 114 340 142Q340 168 321 184 311 191 290 199T234 217Q176 232 139 251T82 294Q67 313 60 335T53 385Q53 418 67 445T107 493 167 525 241 536Q278 536 314 526T382 497 434 452L375 387Q356 406 334 420T288 443 246 451Q225 451 208 447T180 435 162 415 156 388Q157 375 162 364T178 344Q189 336 211 327T267 310Q317 297 349 282T401 246Q421 227 429 202T437 146Q437 101 412 66T343 10 247-10Z" horiz-adv-x="479" unicode="&#x73;"/><glyph d="M137 0V659H240V0H137ZM28 425V525H362V425H28Z" horiz-adv-x="384" unicode="&#x74;"/><glyph d="M256-10Q200-10 159 16T95 89 72 201V525H175V229Q175 183 189 150T231 98 298 80Q327 80 351 89T392 116 420 157 430 209V525H533V0H430V110L448 122Q436 85 408 55T340 8 256-10Z" horiz-adv-x="605" unicode="&#x75;"/><glyph d="M244 0 22 525H133L293 132 274 123 445 525H551L318 0H244Z" horiz-adv-x="573" unicode="&#x76;"/><glyph d="M201 0 22 525 126 526 254 133 231 135 370 442H432L572 134 545 132 674 525H778L601 0H530L384 334 407 331 271 0H201Z" horiz-adv-x="800" unicode="&#x77;"/><glyph d="M421 0 251 221 236 240 15 525H145L312 307 329 285 547 0H421ZM16 0 223 270 284 197 138 0H16ZM335 254 278 326 407 525H529L335 254Z" horiz-adv-x="562" unicode="&#x78;"/><glyph d="M160-230 266 15 267-67 5 525H125L289 139Q294 129 301 109T313 68L287 62Q295 83 302 104T317 146L454 525H576L360 0 271-230H160Z" horiz-adv-x="581" unicode="&#x79;"/><glyph d="M50 0V86L321 448V436H50V525H433V441L166 84 162 89H439V0H50Z" horiz-adv-x="484" unicode="&#x7a;"/><glyph d="M369-200Q320-190 285-175T228-136 195-81 184-7L185 88Q185 146 160 178T87 212H44V288H89Q136 289 160 321T185 412L184 507Q184 589 227 634T369 700L387 631Q344 617 320 601T285 560 275 493L277 398Q277 340 251 302T174 249L173 252Q224 235 250 197T277 102L275 7Q275-34 285-59T319-100 387-131L369-200Z" horiz-adv-x="411" unicode="&#x7b;"/><glyph d="M67-193V740H164V-193H67Z" horiz-adv-x="231" unicode="&#x7c;"/><glyph d="M42-200 24-131Q67-117 91-101T125-60 136 7L134 102Q134 160 160 198T237 251L238 248Q187 265 161 303T134 398L136 493Q136 534 126 559T92 600 24 631L42 700Q91 690 126 675T183 636 216 581 227 507L226 412Q226 354 251 322T324 288H367V212H322Q275 211 251 179T226 88L227-7Q227-89 184-134T42-200Z" horiz-adv-x="411" unicode="&#x7d;"/><glyph d="M356 225Q341 225 319 231T276 245 239 258Q225 264 208 270T175 280 151 285Q133 285 124 270T114 227H40Q40 295 71 332T162 369Q174 369 189 366T220 357 251 346 277 335Q291 330 307 324T338 314 361 309Q378 309 388 322T396 357L470 354Q470 312 457 284T419 240 356 225Z" horiz-adv-x="510" unicode="&#x7e;"/><glyph horiz-adv-x="280" unicode="&#xa0;"/><glyph d="M141 289Q148 226 153 159T162 25 165-100V-170H57V-100Q57-38 60 30T68 164 81 289H141ZM114 541Q147 541 165 522T183 466Q183 433 164 412T114 391Q81 391 63 410T45 466Q45 499 64 520T114 541Z" horiz-adv-x="236" unicode="&#xa1;"/><glyph d="M295 78Q222 78 165 114T74 212 40 351Q40 428 73 490T164 588 295 624Q365 624 422 596T510 518L453 448Q437 471 412 490T359 520 305 531Q257 531 220 508T160 443 138 351Q138 300 161 260T222 195 306 171Q333 171 358 180T408 207 453 251L510 181Q478 136 419 107T295 78ZM239 0V108L246 145V563L239 606V700H336V605L329 572V141L336 107V0H239Z" horiz-adv-x="535" unicode="&#xa2;"/><glyph d="M197 53 122 74Q137 82 149 101T168 146 175 201Q175 215 174 229T169 260 160 300 143 352Q131 389 125 413T117 454 114 487Q114 554 142 604T220 682 340 710Q407 710 456 688T529 625L455 569Q440 585 422 595T384 611 340 617Q303 617 275 600T230 554 214 486Q214 455 224 419T245 353Q255 323 265 289T275 224Q275 194 267 166T241 110 197 53ZM425-21Q402-21 369-12T313 4Q300 8 282 13T246 22 214 26Q182 26 145 18T70-6L30 65Q69 89 117 101T214 114Q243 114 267 109T334 89Q355 82 379 75T425 67Q453 67 481 75T538 102L590 37Q559 9 516-6T425-21ZM44 323V408H452V323H44Z" horiz-adv-x="610" unicode="&#xa3;"/><glyph d="M279 122Q230 122 190 146T125 211 101 302Q101 352 125 393T189 458 279 482Q328 482 368 458T433 392 457 302Q457 252 433 211T369 146 279 122ZM129 82 58 152 150 250 221 179 129 82ZM148 359 50 451 120 521 218 429 148 359ZM279 210Q304 210 322 222T351 254 362 302Q362 329 352 350T323 383 279 395Q255 395 237 383T208 350 197 302Q197 275 207 255T236 222 279 210ZM428 90 330 182 400 252 498 160 428 90ZM407 362 337 432 429 530 500 460 407 362Z" horiz-adv-x="550" unicode="&#xa4;"/><glyph d="M286 0V349L293 300 10 700H140L356 390 331 393 526 700H650L379 289 394 357V0H286ZM146 90V176L558 174V88L146 90ZM146 230V316L558 314V228L146 230Z" horiz-adv-x="660" unicode="&#xa5;"/><glyph d="M71-202V198H168V-202H71ZM71 341V740H168V341H71Z" horiz-adv-x="239" unicode="&#xa6;"/><glyph d="M323 128 311 190Q347 194 370 205T404 232 415 266Q415 289 400 304T349 329L220 367Q211 370 191 380T148 409 110 460 94 536Q94 574 107 606T145 661 208 698 295 711Q332 711 365 702T425 675 476 628L419 562Q402 580 382 592T338 611 290 617Q248 617 220 596T192 541Q192 524 200 509T227 482 273 462L366 435Q443 413 479 374T513 278Q510 229 486 196T421 147 323 128ZM274-134Q236-134 196-123T119-91 55-44L105 35Q141 0 186-21T273-43Q323-43 351-25T380 29Q380 46 370 59T343 82 303 99L185 135Q115 156 81 194T47 290Q47 333 67 367T127 423 221 444L231 374Q208 371 191 361T164 335 154 300Q154 276 173 258T235 227L330 200Q367 190 401 170T456 119 478 41Q478-10 455-49T387-111 274-134Z" horiz-adv-x="549" unicode="&#xa7;"/><glyph d="M350 642Q317 642 299 659T281 707Q281 736 299 754T350 772Q383 772 401 755T419 707Q419 678 401 660T350 642ZM150 642Q117 642 99 659T81 707Q81 736 99 754T150 772Q183 772 201 755T219 707Q219 678 201 660T150 642Z" horiz-adv-x="500" unicode="&#xa8;"/><glyph d="M393-7Q318-7 254 20T140 97 64 210 36 350Q36 425 63 489T140 603 253 679 393 707Q467 707 531 680T645 603 722 490 750 350Q750 275 723 211T646 97 532 21 393-7ZM411 142Q351 142 303 169T226 243 197 350Q197 407 225 454T302 529 411 557Q445 557 478 546T540 512L503 437Q484 451 468 459T438 472 411 476Q374 476 345 459T300 414 283 350Q283 313 299 284T345 239 411 223Q434 223 458 232T507 261L544 185Q514 164 480 153T411 142ZM393 67Q452 67 503 89T593 149 654 239 676 350Q676 410 654 461T594 551 504 611 393 633Q334 633 283 612T193 551 132 461 110 350Q110 291 132 240T192 150 282 89 393 67Z" horiz-adv-x="786" unicode="&#xa9;"/><glyph d="M143 391Q104 391 75 412T31 472 15 562Q15 608 33 644T82 700 155 721Q204 721 230 688T257 592L242 648V715H335V401H242V474L257 512Q257 482 242 454T200 409 143 391ZM172 458Q194 458 210 470T236 504 246 555Q246 601 226 627T171 654Q154 654 140 642T117 608 108 562Q108 530 115 507T137 471 172 458Z" horiz-adv-x="365" unicode="&#xaa;"/><glyph d="M383 50 224 257V259L382 471 445 426 326 255 327 266 446 95 383 50ZM170 50 11 257V259L169 471 232 426 113 255 114 266 233 95 170 50Z" horiz-adv-x="486" unicode="&#xab;"/><glyph d="M515 117V319L534 307H50V404H620V117H515Z" horiz-adv-x="670" unicode="&#xac;"/><glyph d="M53 235V337H341V235H53Z" horiz-adv-x="394" unicode="&#xad;"/><glyph d="M259 259Q195 259 143 289T60 370 29 484Q29 531 47 572T96 643 169 691 259 709Q306 709 347 692T420 643 470 572 488 484Q488 437 470 396T421 325 349 277 259 259ZM259 322Q305 322 342 343T402 402 425 484Q425 529 403 566T343 625 259 647Q212 647 174 625T114 566 91 484Q91 439 113 402T174 344 259 322ZM292 367 255 467 308 481 352 367H292ZM172 367V606H282Q315 606 335 586T356 534Q356 502 335 482T282 461H211L229 470V367H172ZM229 495 213 502H262Q279 502 290 509T301 529Q301 542 292 549T264 556H210L229 564V495Z" horiz-adv-x="507" unicode="&#xae;"/><glyph d="M108 642V717H392V642H108Z" horiz-adv-x="424" unicode="&#xaf;"/><glyph d="M266 399Q222 399 187 419T131 475 110 553Q110 597 130 632T186 688 266 709Q311 709 346 689T401 633 422 554Q422 511 402 476T346 420 266 399ZM266 466Q289 466 307 478T336 510 347 554Q347 578 336 598T307 629 266 641Q243 641 225 630T196 598 185 553Q185 529 196 509T225 478 266 466Z" horiz-adv-x="532" unicode="&#xb0;"/><glyph d="M50 285V375H532V285H50ZM50-1V91H532V-1H50ZM240 143V534H344V143H240Z" horiz-adv-x="582" unicode="&#xb1;"/><glyph d="M65 418 56 489 155 588Q164 596 177 609T200 638 210 672Q210 688 201 697T175 707Q158 707 138 695T96 653L42 693Q57 719 79 738T127 768 182 779Q215 779 239 766T278 731 292 679Q292 651 277 626T242 579 205 541L138 476 142 485H296V418H65Z" horiz-adv-x="346" unicode="&#xb2;"/><glyph d="M165 412Q146 412 127 416T89 428 57 446L90 501Q109 489 125 484T159 478Q187 478 204 492T222 532Q222 552 207 564T165 577Q152 577 137 574T109 565L88 622 190 710 209 704H79V772H265L272 706 173 624 160 631Q165 634 173 636T186 638Q238 638 267 610T297 533Q297 498 280 471T232 428 165 412Z" horiz-adv-x="342" unicode="&#xb3;"/><glyph d="M180 606 146 657 289 782 354 700 180 606Z" horiz-adv-x="500" unicode="&#xb4;"/><glyph d="M80-157V525H177V222Q177 175 189 144T225 96 284 80Q313 80 337 91T380 121 408 166 419 222V525H516V0H419V114L426 100Q414 64 390 40T335 3 269-10Q248-10 228-3T192 18 170 49L177 62V-157H80Z" horiz-adv-x="586" unicode="&#xb5;"/><glyph d="M246 0V314L270 279H236Q182 279 140 306T73 379 48 486Q48 551 76 599T154 673 273 700H614V0H506V660L522 596H310L354 652V0H246Z" horiz-adv-x="712" unicode="&#xb6;"/><glyph d="M114 253Q81 253 63 272T45 328Q45 361 64 382T114 403Q147 403 165 384T183 328Q183 295 164 274T114 253Z" horiz-adv-x="228" unicode="&#xb7;"/><glyph d="M159-244 152-191Q176-191 202-183T246-163 264-138Q264-124 247-116T209-104 174-100L161-90 233 24H292L249-46Q299-56 324-80T349-139Q349-165 332-185T286-218 225-238 159-244Z" horiz-adv-x="500" unicode="&#xb8;"/><glyph d="M126 429V703L132 685 82 653 47 719 145 777H201V429H164Q154 429 145 429T126 429Z" horiz-adv-x="281" unicode="&#xb9;"/><glyph d="M176 392Q131 392 96 412T41 468 20 549Q20 595 40 631T96 689 176 710Q221 710 256 689T313 631 334 549Q334 504 314 469T257 413 176 392ZM176 463Q197 463 212 474T236 504 245 549Q245 576 237 596T213 627 176 639Q155 639 140 628T117 596 108 549Q108 524 116 505T140 474 176 463Z" horiz-adv-x="354" unicode="&#xba;"/><glyph d="M320 50 257 95 376 266 375 255 256 426 319 471 478 264V262L320 50ZM104 50 41 95 160 266 159 255 40 426 103 471 262 264V262L104 50Z" horiz-adv-x="491" unicode="&#xbb;"/><glyph d="M133 359V633L139 615 89 583 54 649 152 707H208V359H171Q161 359 152 359T133 359ZM111 0 578 700H677L209 0H111ZM674 149H751V81H674V149ZM508 115 492 149H633L615 130V284L644 273 508 115ZM690-2H615V100L628 81H473L456 150 624 356H690V-2Z" horiz-adv-x="793" unicode="&#xbc;"/><glyph d="M133 359V633L139 615 89 583 54 649 152 707H208V359H171Q161 359 152 359T133 359ZM113 0 580 700H679L211 0H113ZM522 0 513 71 612 170Q621 178 634 191T657 220 667 254Q667 270 658 279T632 289Q615 289 595 277T553 235L499 275Q514 301 536 320T584 350 639 361Q672 361 696 348T735 313 749 261Q749 233 734 208T699 161 662 123L595 58 599 67H753V0H522Z" horiz-adv-x="785" unicode="&#xbd;"/><glyph d="M128 342Q109 342 90 346T52 358 20 376L53 431Q72 419 88 414T122 408Q150 408 167 422T185 462Q185 482 170 494T128 507Q115 507 100 504T72 495L51 552 153 640 172 634H42V702H228L235 636 136 554 123 561Q128 564 136 566T149 568Q201 568 230 540T260 463Q260 428 243 401T195 358 128 342ZM121 0 588 700H687L219 0H121ZM672 149H749V81H672V149ZM506 115 490 149H631L613 130V284L642 273 506 115ZM688-2H613V100L626 81H471L454 150 622 356H688V-2Z" horiz-adv-x="791" unicode="&#xbe;"/><glyph d="M300 323 326 182Q287 172 256 160T203 133 165 101 143 65 135 23Q135-6 150-29T193-65 254-78Q294-78 331-51T396 27L471-36Q428-102 369-138T244-175Q181-175 131-149T52-78 22 23Q22 56 35 87T74 147 132 197 206 233L223 323H300ZM335 470Q335 437 316 416T266 395Q233 395 215 414T197 470Q197 503 216 524T266 545Q299 545 317 526T335 470Z" horiz-adv-x="511" unicode="&#xbf;"/><glyph d="M25 0 296 700H406L675 0H560L400 422Q397 429 389 456T369 516 349 576 337 612L360 613Q354 596 346 570T328 515 309 461 294 418L135 0H25ZM145 174 185 278H503L549 174H145ZM426 755 224 830 273 920 456 807 426 755Z" horiz-adv-x="700" unicode="&#xc0;"/><glyph d="M25 0 296 700H406L675 0H560L400 422Q397 429 389 456T369 516 349 576 337 612L360 613Q354 596 346 570T328 515 309 461 294 418L135 0H25ZM145 174 185 278H503L549 174H145ZM282 755 254 807 437 920 484 830 282 755Z" horiz-adv-x="700" unicode="&#xc1;"/><glyph d="M25 0 296 700H406L675 0H560L400 422Q397 429 389 456T369 516 349 576 337 612L360 613Q354 596 346 570T328 515 309 461 294 418L135 0H25ZM145 174 185 278H503L549 174H145ZM226 755 189 790 313 891H386L510 790 473 755 335 820H364L226 755Z" horiz-adv-x="700" unicode="&#xc2;"/><glyph d="M25 0 296 700H406L675 0H560L400 422Q397 429 389 456T369 516 349 576 337 612L360 613Q354 596 346 570T328 515 309 461 294 418L135 0H25ZM145 174 185 278H503L549 174H145ZM424 768Q401 768 378 775T333 791Q316 798 304 802T282 806Q269 806 261 797T252 768H175Q175 822 210 851T289 881Q310 881 330 874T369 859Q383 853 396 849T419 845Q433 845 441 855T448 881H524Q524 852 512 826T478 784 424 768Z" horiz-adv-x="700" unicode="&#xc3;"/><glyph d="M25 0 296 700H406L675 0H560L400 422Q397 429 389 456T369 516 349 576 337 612L360 613Q354 596 346 570T328 515 309 461 294 418L135 0H25ZM145 174 185 278H503L549 174H145ZM453 759Q418 759 401 777T384 824Q384 849 401 869T453 889Q488 889 505 871T522 824Q522 799 505 779T453 759ZM247 759Q212 759 195 777T178 824Q178 849 195 869T247 889Q282 889 299 871T316 824Q316 799 299 779T247 759Z" horiz-adv-x="700" unicode="&#xc4;"/><glyph d="M25 0 296 700H406L675 0H560L400 422Q397 429 389 456T369 516 349 576 337 612L360 613Q354 596 346 570T328 515 309 461 294 418L135 0H25ZM145 174 185 278H503L549 174H145ZM349 679Q321 679 296 693T256 732 240 784Q240 814 255 838T296 876 349 890Q378 890 403 876T443 838 459 784Q459 756 444 732T403 694 349 679ZM349 738Q370 738 384 751T399 784Q399 807 384 819T349 831Q329 831 315 818T300 784Q300 765 314 752T349 738Z" horiz-adv-x="700" unicode="&#xc5;"/><glyph d="M5 0 493 700H894V607H566V402H849V308H566V93H894V0H465V153H203L266 245H465V558L490 550 114 0H5Z" horiz-adv-x="969" unicode="&#xc6;"/><glyph d="M382-10Q309-10 248 16T142 90 73 205 48 350Q48 425 74 489T148 603 257 679 391 706Q442 706 490 691T578 648 643 585L571 510Q542 539 513 558T453 588 391 598Q342 598 300 580T226 528 176 450 158 350Q158 293 175 247T225 167 301 117 400 99Q433 99 465 108T525 134 576 174L630 86Q607 59 568 37T480 3 382-10ZM284-244 277-191Q301-191 327-183T371-163 389-138Q389-124 372-116T334-104 299-100L286-90 358 24H417L375-46Q424-56 449-80T474-139Q474-165 457-185T412-218 351-238 284-244Z" horiz-adv-x="679" unicode="&#xc7;"/><glyph d="M98 0V700H539V596H206V104H539V0H98ZM147 307V411H484V307H147ZM403 755 201 830 250 920 433 807 403 755Z" horiz-adv-x="614" unicode="&#xc8;"/><glyph d="M98 0V700H539V596H206V104H539V0H98ZM147 307V411H484V307H147ZM259 755 231 807 414 920 461 830 259 755Z" horiz-adv-x="614" unicode="&#xc9;"/><glyph d="M98 0V700H539V596H206V104H539V0H98ZM147 307V411H484V307H147ZM203 755 166 790 290 891H363L487 790 450 755 312 820H341L203 755Z" horiz-adv-x="614" unicode="&#xca;"/><glyph d="M98 0V700H539V596H206V104H539V0H98ZM147 307V411H484V307H147ZM430 759Q395 759 378 777T361 824Q361 849 378 869T430 889Q465 889 482 871T499 824Q499 799 482 779T430 759ZM224 759Q189 759 172 777T155 824Q155 849 172 869T224 889Q259 889 276 871T293 824Q293 799 276 779T224 759Z" horiz-adv-x="614" unicode="&#xcb;"/><glyph d="M72 0V100H185V600H72V700H406V600H293V100H406V0H72ZM571 755 369 830 418 920 601 807 571 755Z" horiz-adv-x="478" unicode="&#xcc;"/><glyph d="M72 0V100H185V600H72V700H406V600H293V100H406V0H72ZM171 755 143 807 326 920 373 830 171 755Z" horiz-adv-x="478" unicode="&#xcd;"/><glyph d="M72 0V100H185V600H72V700H406V600H293V100H406V0H72ZM371 755 334 790 458 891H531L655 790 618 755 480 820H509L371 755Z" horiz-adv-x="478" unicode="&#xce;"/><glyph d="M72 0V100H185V600H72V700H406V600H293V100H406V0H72ZM598 759Q563 759 546 777T529 824Q529 849 546 869T598 889Q633 889 650 871T667 824Q667 799 650 779T598 759ZM392 759Q357 759 340 777T323 824Q323 849 340 869T392 889Q427 889 444 871T461 824Q461 799 444 779T392 759Z" horiz-adv-x="478" unicode="&#xcf;"/><glyph d="M49 305V395H317V305H49ZM98 0V700H372Q447 700 507 675T611 603 677 492 700 350Q700 272 677 208T612 97 508 25 372 0H98ZM206 93 203 104H367Q420 104 461 121T531 169 575 247 590 350Q590 407 575 452T531 530 461 579 367 596H200L206 605V93Z" horiz-adv-x="748" unicode="&#xd0;"/><glyph d="M98 0V700H195L623 127 607 118Q603 143 600 172T595 235 591 306 588 385 587 470V700H695V0H596L175 552 186 566Q191 505 194 463T200 391 204 343 205 312 206 291V0H98ZM471 768Q448 768 425 775T380 791Q363 798 351 802T329 806Q316 806 308 797T299 768H222Q222 822 257 851T336 881Q357 881 377 874T416 859Q430 853 443 849T466 845Q480 845 488 855T495 881H571Q571 852 559 826T525 784 471 768Z" horiz-adv-x="793" unicode="&#xd1;"/><glyph d="M391-10Q317-10 255 17T146 92 74 206 48 350Q48 428 73 493T145 607 254 683 391 710Q465 710 527 683T636 607 708 493 734 350Q734 273 709 208T637 93 528 17 391-10ZM391 95Q442 95 484 114T558 167 606 248 624 350Q624 405 607 451T558 532 485 586 391 605Q340 605 298 586T224 533 175 453 158 350Q158 295 175 248T223 167 297 114 391 95ZM467 755 265 830 314 920 497 807 467 755Z" horiz-adv-x="782" unicode="&#xd2;"/><glyph d="M391-10Q317-10 255 17T146 92 74 206 48 350Q48 428 73 493T145 607 254 683 391 710Q465 710 527 683T636 607 708 493 734 350Q734 273 709 208T637 93 528 17 391-10ZM391 95Q442 95 484 114T558 167 606 248 624 350Q624 405 607 451T558 532 485 586 391 605Q340 605 298 586T224 533 175 453 158 350Q158 295 175 248T223 167 297 114 391 95ZM323 755 295 807 478 920 525 830 323 755Z" horiz-adv-x="782" unicode="&#xd3;"/><glyph d="M391-10Q317-10 255 17T146 92 74 206 48 350Q48 428 73 493T145 607 254 683 391 710Q465 710 527 683T636 607 708 493 734 350Q734 273 709 208T637 93 528 17 391-10ZM391 95Q442 95 484 114T558 167 606 248 624 350Q624 405 607 451T558 532 485 586 391 605Q340 605 298 586T224 533 175 453 158 350Q158 295 175 248T223 167 297 114 391 95ZM267 755 230 790 354 891H427L551 790 514 755 376 820H405L267 755Z" horiz-adv-x="782" unicode="&#xd4;"/><glyph d="M391-10Q317-10 255 17T146 92 74 206 48 350Q48 428 73 493T145 607 254 683 391 710Q465 710 527 683T636 607 708 493 734 350Q734 273 709 208T637 93 528 17 391-10ZM391 95Q442 95 484 114T558 167 606 248 624 350Q624 405 607 451T558 532 485 586 391 605Q340 605 298 586T224 533 175 453 158 350Q158 295 175 248T223 167 297 114 391 95ZM465 768Q442 768 419 775T374 791Q357 798 345 802T323 806Q310 806 302 797T293 768H216Q216 822 251 851T330 881Q351 881 371 874T410 859Q424 853 437 849T460 845Q474 845 482 855T489 881H565Q565 852 553 826T519 784 465 768Z" horiz-adv-x="782" unicode="&#xd5;"/><glyph d="M391-10Q317-10 255 17T146 92 74 206 48 350Q48 428 73 493T145 607 254 683 391 710Q465 710 527 683T636 607 708 493 734 350Q734 273 709 208T637 93 528 17 391-10ZM391 95Q442 95 484 114T558 167 606 248 624 350Q624 405 607 451T558 532 485 586 391 605Q340 605 298 586T224 533 175 453 158 350Q158 295 175 248T223 167 297 114 391 95ZM494 759Q459 759 442 777T425 824Q425 849 442 869T494 889Q529 889 546 871T563 824Q563 799 546 779T494 759ZM288 759Q253 759 236 777T219 824Q219 849 236 869T288 889Q323 889 340 871T357 824Q357 799 340 779T288 759Z" horiz-adv-x="782" unicode="&#xd6;"/><glyph d="M385 78 35 426 99 486 449 137 385 78ZM98 71 39 136 387 486 447 422 98 71Z" horiz-adv-x="484" unicode="&#xd7;"/><glyph d="M123-33 60 20 649 741 717 694 123-33ZM390-10Q316-10 254 17T145 92 73 206 47 350Q47 428 72 493T144 607 253 683 390 710Q464 710 526 683T635 607 707 493 733 350Q733 273 708 208T636 93 527 17 390-10ZM390 95Q441 95 483 114T557 167 605 248 623 350Q623 405 606 451T557 532 484 586 390 605Q339 605 297 586T223 533 174 453 157 350Q157 295 174 248T222 167 296 114 390 95Z" horiz-adv-x="770" unicode="&#xd8;"/><glyph d="M370-6Q289-6 225 29T125 127 88 269V701H196V278Q196 227 220 187T283 122 370 98Q420 98 460 122T525 186 549 278V701H652V269Q652 190 616 128T515 30 370-6ZM446 755 244 830 293 920 476 807 446 755Z" horiz-adv-x="740" unicode="&#xd9;"/><glyph d="M370-6Q289-6 225 29T125 127 88 269V701H196V278Q196 227 220 187T283 122 370 98Q420 98 460 122T525 186 549 278V701H652V269Q652 190 616 128T515 30 370-6ZM302 755 274 807 457 920 504 830 302 755Z" horiz-adv-x="740" unicode="&#xda;"/><glyph d="M370-6Q289-6 225 29T125 127 88 269V701H196V278Q196 227 220 187T283 122 370 98Q420 98 460 122T525 186 549 278V701H652V269Q652 190 616 128T515 30 370-6ZM246 755 209 790 333 891H406L530 790 493 755 355 820H384L246 755Z" horiz-adv-x="740" unicode="&#xdb;"/><glyph d="M370-6Q289-6 225 29T125 127 88 269V701H196V278Q196 227 220 187T283 122 370 98Q420 98 460 122T525 186 549 278V701H652V269Q652 190 616 128T515 30 370-6ZM473 759Q438 759 421 777T404 824Q404 849 421 869T473 889Q508 889 525 871T542 824Q542 799 525 779T473 759ZM267 759Q232 759 215 777T198 824Q198 849 215 869T267 889Q302 889 319 871T336 824Q336 799 319 779T267 759Z" horiz-adv-x="740" unicode="&#xdc;"/><glyph d="M286 0V349L293 300 10 700H140L356 390 331 393 526 700H650L379 289 394 357V0H286ZM262 755 234 807 417 920 464 830 262 755Z" horiz-adv-x="660" unicode="&#xdd;"/><glyph d="M98 0V700H206V573H383Q440 573 486 545T561 467 589 358Q589 298 561 249T487 170 383 141H206V0H98ZM206 245H381Q408 245 430 260T465 301 479 358Q479 389 466 414T430 454 381 469H206V245Z" horiz-adv-x="634" unicode="&#xde;"/><glyph d="M422-10Q374-10 338 6T275 57L327 112Q354 88 377 78T424 68Q470 68 497 102T525 189Q525 228 515 259T482 314 425 356 344 385V450Q373 462 394 475T429 503 450 533 457 565Q457 602 429 623T350 644Q293 644 260 605T226 502V0H129V499Q129 569 156 622T234 704 354 734Q415 734 459 714T528 657 553 574Q553 547 540 521T504 474 449 439L447 443Q486 431 518 408T573 354 609 284 622 203Q622 142 596 94T525 18 422-10ZM45 404V497H180V404H45Z" horiz-adv-x="664" unicode="&#xdf;"/><glyph d="M274-10Q209-10 156 26T70 124 38 264Q38 343 70 404T158 501 283 536Q324 536 358 524T417 491 459 441 480 381L457 389V525H561V0H457V125L481 132Q475 105 457 80T410 34 347 2 274-10ZM301 85Q348 85 384 108T440 171 461 264Q461 315 441 355T384 418 301 441Q255 441 220 418T164 355 143 264Q143 212 163 172T219 108 301 85ZM367 606 193 700 258 782 401 657 367 606Z" horiz-adv-x="633" unicode="&#xe0;"/><glyph d="M274-10Q209-10 156 26T70 124 38 264Q38 343 70 404T158 501 283 536Q324 536 358 524T417 491 459 441 480 381L457 389V525H561V0H457V125L481 132Q475 105 457 80T410 34 347 2 274-10ZM301 85Q348 85 384 108T440 171 461 264Q461 315 441 355T384 418 301 441Q255 441 220 418T164 355 143 264Q143 212 163 172T219 108 301 85ZM247 606 213 657 356 782 421 700 247 606Z" horiz-adv-x="633" unicode="&#xe1;"/><glyph d="M274-10Q209-10 156 26T70 124 38 264Q38 343 70 404T158 501 283 536Q324 536 358 524T417 491 459 441 480 381L457 389V525H561V0H457V125L481 132Q475 105 457 80T410 34 347 2 274-10ZM301 85Q348 85 384 108T440 171 461 264Q461 315 441 355T384 418 301 441Q255 441 220 418T164 355 143 264Q143 212 163 172T219 108 301 85ZM197 607 159 640 274 753H360L475 640 437 607 302 680H332L197 607Z" horiz-adv-x="633" unicode="&#xe2;"/><glyph d="M274-10Q209-10 156 26T70 124 38 264Q38 343 70 404T158 501 283 536Q324 536 358 524T417 491 459 441 480 381L457 389V525H561V0H457V125L481 132Q475 105 457 80T410 34 347 2 274-10ZM301 85Q348 85 384 108T440 171 461 264Q461 315 441 355T384 418 301 441Q255 441 220 418T164 355 143 264Q143 212 163 172T219 108 301 85ZM368 615Q348 615 335 623T306 643Q287 660 278 666T260 673Q247 673 237 659T223 615L155 625Q157 674 186 710T265 746Q285 746 298 738T327 718Q347 702 356 695T373 688Q387 688 396 703T410 746L478 736Q477 704 463 676T425 632 368 615Z" horiz-adv-x="633" unicode="&#xe3;"/><glyph d="M274-10Q209-10 156 26T70 124 38 264Q38 343 70 404T158 501 283 536Q324 536 358 524T417 491 459 441 480 381L457 389V525H561V0H457V125L481 132Q475 105 457 80T410 34 347 2 274-10ZM301 85Q348 85 384 108T440 171 461 264Q461 315 441 355T384 418 301 441Q255 441 220 418T164 355 143 264Q143 212 163 172T219 108 301 85ZM417 642Q384 642 366 659T348 707Q348 736 366 754T417 772Q450 772 468 755T486 707Q486 678 468 660T417 642ZM217 642Q184 642 166 659T148 707Q148 736 166 754T217 772Q250 772 268 755T286 707Q286 678 268 660T217 642Z" horiz-adv-x="633" unicode="&#xe4;"/><glyph d="M274-10Q209-10 156 26T70 124 38 264Q38 343 70 404T158 501 283 536Q324 536 358 524T417 491 459 441 480 381L457 389V525H561V0H457V125L481 132Q475 105 457 80T410 34 347 2 274-10ZM301 85Q348 85 384 108T440 171 461 264Q461 315 441 355T384 418 301 441Q255 441 220 418T164 355 143 264Q143 212 163 172T219 108 301 85ZM316 604Q288 604 263 618T223 657 207 709Q207 738 222 762T262 800 316 815Q346 815 371 801T411 762 426 709Q426 681 411 657T371 619 316 604ZM316 663Q337 663 351 676T366 709Q366 730 352 743T316 756Q295 756 281 743T267 709Q267 690 281 677T316 663Z" horiz-adv-x="633" unicode="&#xe5;"/><glyph d="M216-10Q165-10 125 10T62 65 38 149Q38 191 53 223T98 276 172 308 274 319H769L754 302V326Q751 359 732 385T684 426 621 441Q571 441 537 421T484 362 466 264Q466 211 491 171T558 107 654 84Q693 84 726 97T799 144L849 69Q825 46 791 28T719 0 644-10Q563-10 502 23T407 117 373 257Q373 318 392 369T444 457 523 515 621 536Q689 535 743 502T828 412 859 281L858 237H261Q231 237 208 232T168 215 143 188 135 151Q135 129 146 113T176 87 220 78Q256 78 288 90T346 125 386 174L430 107Q407 72 373 46T299 5 216-10ZM373 257V356Q373 374 364 390T340 417 304 434 262 441Q218 441 183 423T118 368L51 435Q80 468 113 490T185 524 264 536Q311 536 348 526T411 498 452 452 466 388V263L373 257Z" horiz-adv-x="899" unicode="&#xe6;"/><glyph d="M295-10Q222-10 165 26T74 124 40 263Q40 340 73 402T164 500 295 536Q365 536 422 508T510 430L453 360Q437 383 412 402T359 432 305 443Q257 443 220 420T160 355 138 263Q138 212 161 172T222 107 306 83Q333 83 358 92T408 119 453 163L510 93Q478 48 419 19T295-10ZM204-244 197-191Q221-191 247-183T291-163 309-138Q309-124 292-116T254-104 219-100L206-90 278 24H337L294-46Q344-56 369-80T394-139Q394-165 377-185T331-218 270-238 204-244Z" horiz-adv-x="535" unicode="&#xe7;"/><glyph d="M317-10Q236-10 174 24T76 119 40 257Q40 319 60 370T115 458 200 516 308 537Q359 537 403 518T479 464 529 384 546 282L545 238H116L93 320H456L441 303V327Q438 360 419 386T371 427 308 442Q254 442 217 422T161 362 142 264Q142 209 165 169T230 106 327 84Q366 84 399 97T472 144L524 71Q500 47 466 29T393 1 317-10ZM358 606 184 700 249 782 392 657 358 606Z" horiz-adv-x="586" unicode="&#xe8;"/><glyph d="M317-10Q236-10 174 24T76 119 40 257Q40 319 60 370T115 458 200 516 308 537Q359 537 403 518T479 464 529 384 546 282L545 238H116L93 320H456L441 303V327Q438 360 419 386T371 427 308 442Q254 442 217 422T161 362 142 264Q142 209 165 169T230 106 327 84Q366 84 399 97T472 144L524 71Q500 47 466 29T393 1 317-10ZM238 606 204 657 347 782 412 700 238 606Z" horiz-adv-x="586" unicode="&#xe9;"/><glyph d="M317-10Q236-10 174 24T76 119 40 257Q40 319 60 370T115 458 200 516 308 537Q359 537 403 518T479 464 529 384 546 282L545 238H116L93 320H456L441 303V327Q438 360 419 386T371 427 308 442Q254 442 217 422T161 362 142 264Q142 209 165 169T230 106 327 84Q366 84 399 97T472 144L524 71Q500 47 466 29T393 1 317-10ZM188 607 150 640 265 753H351L466 640 428 607 293 680H323L188 607Z" horiz-adv-x="586" unicode="&#xea;"/><glyph d="M317-10Q236-10 174 24T76 119 40 257Q40 319 60 370T115 458 200 516 308 537Q359 537 403 518T479 464 529 384 546 282L545 238H116L93 320H456L441 303V327Q438 360 419 386T371 427 308 442Q254 442 217 422T161 362 142 264Q142 209 165 169T230 106 327 84Q366 84 399 97T472 144L524 71Q500 47 466 29T393 1 317-10ZM408 642Q375 642 357 659T339 707Q339 736 357 754T408 772Q441 772 459 755T477 707Q477 678 459 660T408 642ZM208 642Q175 642 157 659T139 707Q139 736 157 754T208 772Q241 772 259 755T277 707Q277 678 259 660T208 642Z" horiz-adv-x="586" unicode="&#xeb;"/><glyph d="M70 0V525H173V0H70ZM170 606-4 700 61 782 204 657 170 606Z" horiz-adv-x="243" unicode="&#xec;"/><glyph d="M70 0V525H173V0H70ZM50 606 16 657 159 782 224 700 50 606Z" horiz-adv-x="243" unicode="&#xed;"/><glyph d="M70 0V525H173V0H70ZM0 607-38 640 77 753H163L278 640 240 607 105 680H135L0 607Z" horiz-adv-x="243" unicode="&#xee;"/><glyph d="M70 0V525H173V0H70ZM220 642Q187 642 169 659T151 707Q151 736 169 754T220 772Q253 772 271 755T289 707Q289 678 271 660T220 642ZM20 642Q-13 642-31 659T-49 707Q-49 736-31 754T20 772Q53 772 71 755T89 707Q89 678 71 660T20 642Z" horiz-adv-x="243" unicode="&#xef;"/><glyph d="M287-7Q218-7 162 29T73 126 40 262Q40 316 59 364T111 449 186 507 275 528Q325 528 364 506T430 444 468 348L418 379Q416 425 406 462T376 530 329 584 261 627 169 662L211 740Q270 726 320 698T409 628 477 534 519 418 534 281Q534 196 503 131T415 30 287-7ZM287 89Q329 89 363 112T417 174 437 262Q437 309 417 347T363 409 287 432Q245 432 211 410T157 349 137 262Q137 213 157 174T211 112 287 89ZM156 528 143 593 288 630 343 650 489 683 507 617 394 591 353 574 156 528Z" horiz-adv-x="574" unicode="&#xf0;"/><glyph d="M72 0V525H175V417L157 405Q167 440 196 469T265 517 347 536Q407 536 447 513T507 441 527 320V0H424V313Q424 358 412 387T375 430 313 442Q283 442 258 433T215 406 186 367 175 318V0H124Q111 0 98 0T72 0ZM379 615Q359 615 346 623T317 643Q298 660 289 666T271 673Q258 673 248 659T234 615L166 625Q168 674 197 710T276 746Q296 746 309 738T338 718Q358 702 367 695T384 688Q398 688 407 703T421 746L489 736Q488 704 474 676T436 632 379 615Z" horiz-adv-x="595" unicode="&#xf1;"/><glyph d="M308-10Q231-10 171 25T75 122 40 263Q40 342 75 403T170 500 308 536Q384 536 444 501T540 404 575 263Q575 184 540 123T445 26 308-10ZM308 84Q355 84 392 107T450 171 470 263Q471 315 450 355T392 419 308 442Q261 442 224 419T165 355 145 263Q144 212 165 172T223 108 308 84ZM358 606 184 700 249 782 392 657 358 606Z" horiz-adv-x="615" unicode="&#xf2;"/><glyph d="M308-10Q231-10 171 25T75 122 40 263Q40 342 75 403T170 500 308 536Q384 536 444 501T540 404 575 263Q575 184 540 123T445 26 308-10ZM308 84Q355 84 392 107T450 171 470 263Q471 315 450 355T392 419 308 442Q261 442 224 419T165 355 145 263Q144 212 165 172T223 108 308 84ZM238 606 204 657 347 782 412 700 238 606Z" horiz-adv-x="615" unicode="&#xf3;"/><glyph d="M308-10Q231-10 171 25T75 122 40 263Q40 342 75 403T170 500 308 536Q384 536 444 501T540 404 575 263Q575 184 540 123T445 26 308-10ZM308 84Q355 84 392 107T450 171 470 263Q471 315 450 355T392 419 308 442Q261 442 224 419T165 355 145 263Q144 212 165 172T223 108 308 84ZM188 607 150 640 265 753H351L466 640 428 607 293 680H323L188 607Z" horiz-adv-x="615" unicode="&#xf4;"/><glyph d="M308-10Q231-10 171 25T75 122 40 263Q40 342 75 403T170 500 308 536Q384 536 444 501T540 404 575 263Q575 184 540 123T445 26 308-10ZM308 84Q355 84 392 107T450 171 470 263Q471 315 450 355T392 419 308 442Q261 442 224 419T165 355 145 263Q144 212 165 172T223 108 308 84ZM359 615Q339 615 326 623T297 643Q278 660 269 666T251 673Q238 673 228 659T214 615L146 625Q148 674 177 710T256 746Q276 746 289 738T318 718Q338 702 347 695T364 688Q378 688 387 703T401 746L469 736Q468 704 454 676T416 632 359 615Z" horiz-adv-x="615" unicode="&#xf5;"/><glyph d="M308-10Q231-10 171 25T75 122 40 263Q40 342 75 403T170 500 308 536Q384 536 444 501T540 404 575 263Q575 184 540 123T445 26 308-10ZM308 84Q355 84 392 107T450 171 470 263Q471 315 450 355T392 419 308 442Q261 442 224 419T165 355 145 263Q144 212 165 172T223 108 308 84ZM408 642Q375 642 357 659T339 707Q339 736 357 754T408 772Q441 772 459 755T477 707Q477 678 459 660T408 642ZM208 642Q175 642 157 659T139 707Q139 736 157 754T208 772Q241 772 259 755T277 707Q277 678 259 660T208 642Z" horiz-adv-x="615" unicode="&#xf6;"/><glyph d="M50 215V305H547V215H50ZM293 15Q275 15 260 24T236 47 227 80Q227 98 236 113T260 136 293 145Q311 145 326 137T349 113 358 80Q358 62 350 48T326 24 293 15ZM293 372Q275 372 260 381T236 404 227 436Q227 454 236 469T260 493 293 502Q311 502 326 493T349 469 358 436Q358 419 349 405T325 381 293 372Z" horiz-adv-x="597" unicode="&#xf7;"/><glyph d="M107-35 41 13 494 545 561 496 107-35ZM308-10Q231-10 171 25T75 122 40 263Q40 342 75 403T170 500 308 536Q384 536 444 501T540 404 575 263Q575 184 540 123T445 26 308-10ZM308 84Q355 84 392 107T450 171 470 263Q471 315 450 355T392 419 308 442Q261 442 224 419T165 355 145 263Q144 212 165 172T223 108 308 84Z" horiz-adv-x="615" unicode="&#xf8;"/><glyph d="M256-10Q200-10 159 16T95 89 72 201V525H175V229Q175 183 189 150T231 98 298 80Q327 80 351 89T392 116 420 157 430 209V525H533V0H430V110L448 122Q436 85 408 55T340 8 256-10ZM353 606 179 700 244 782 387 657 353 606Z" horiz-adv-x="605" unicode="&#xf9;"/><glyph d="M256-10Q200-10 159 16T95 89 72 201V525H175V229Q175 183 189 150T231 98 298 80Q327 80 351 89T392 116 420 157 430 209V525H533V0H430V110L448 122Q436 85 408 55T340 8 256-10ZM233 606 199 657 342 782 407 700 233 606Z" horiz-adv-x="605" unicode="&#xfa;"/><glyph d="M256-10Q200-10 159 16T95 89 72 201V525H175V229Q175 183 189 150T231 98 298 80Q327 80 351 89T392 116 420 157 430 209V525H533V0H430V110L448 122Q436 85 408 55T340 8 256-10ZM183 607 145 640 260 753H346L461 640 423 607 288 680H318L183 607Z" horiz-adv-x="605" unicode="&#xfb;"/><glyph d="M256-10Q200-10 159 16T95 89 72 201V525H175V229Q175 183 189 150T231 98 298 80Q327 80 351 89T392 116 420 157 430 209V525H533V0H430V110L448 122Q436 85 408 55T340 8 256-10ZM403 642Q370 642 352 659T334 707Q334 736 352 754T403 772Q436 772 454 755T472 707Q472 678 454 660T403 642ZM203 642Q170 642 152 659T134 707Q134 736 152 754T203 772Q236 772 254 755T272 707Q272 678 254 660T203 642Z" horiz-adv-x="605" unicode="&#xfc;"/><glyph d="M160-230 266 15 267-67 5 525H125L289 139Q294 129 301 109T313 68L287 62Q295 83 302 104T317 146L454 525H576L360 0 271-230H160ZM221 606 187 657 330 782 395 700 221 606Z" horiz-adv-x="581" unicode="&#xfd;"/><glyph d="M72-220V740H176V405L160 414Q166 444 194 471T262 516 346 534Q399 534 443 514T521 458 573 372 591 263Q591 185 560 124T473 27 349-9Q303-9 260 9T187 57 150 117L176 131V-220H72ZM332 86Q378 86 414 109T471 172 492 263Q492 314 472 353T415 416 332 439Q285 439 249 417T192 354 171 263Q171 212 192 172T249 109 332 86Z" horiz-adv-x="631" unicode="&#xfe;"/><glyph d="M160-230 266 15 267-67 5 525H125L289 139Q294 129 301 109T313 68L287 62Q295 83 302 104T317 146L454 525H576L360 0 271-230H160ZM391 642Q358 642 340 659T322 707Q322 736 340 754T391 772Q424 772 442 755T460 707Q460 678 442 660T391 642ZM191 642Q158 642 140 659T122 707Q122 736 140 754T191 772Q224 772 242 755T260 707Q260 678 242 660T191 642Z" horiz-adv-x="581" unicode="&#xff;"/><glyph d="M53 237V336H461V237H53Z" horiz-adv-x="514" unicode="&#x2013;"/><glyph d="M53 237V337H815V237H53Z" horiz-adv-x="868" unicode="&#x2014;"/><glyph d="M139 480Q111 480 89 494T53 534 40 593Q40 619 51 644T81 691 127 730 183 756L221 710Q182 692 157 669T132 629Q132 616 143 606T163 588Q185 570 192 558T200 533Q200 509 183 495T139 480Z" horiz-adv-x="241" unicode="&#x2018;"/><glyph d="M58 475 20 521Q59 539 84 562T109 602Q109 615 98 625T78 643Q56 661 49 673T41 698Q41 722 58 736T102 751Q130 751 152 737T188 697 201 638Q201 612 190 587T160 540 114 501 58 475Z" horiz-adv-x="241" unicode="&#x2019;"/><glyph d="M88-179 50-133Q85-113 107-87T129-42Q129-32 124-23T103 4Q83 23 77 36T71 64Q71 88 88 102T132 117Q157 117 177 103T209 63 221 4Q221-26 211-54T183-106 141-149 88-179Z" horiz-adv-x="267" unicode="&#x201a;"/><glyph d="M139 731Q111 731 89 745T53 785 40 844Q40 870 51 895T81 942 127 981 183 1007L221 961Q182 943 157 920T132 880Q132 867 143 857T163 839Q185 821 192 809T200 784Q200 760 183 746T139 731ZM346 475Q318 475 296 489T260 529 247 588Q247 614 258 639T288 686 334 725 390 751L428 705Q389 687 364 664T339 624Q339 611 350 601T370 583Q392 565 399 553T407 528Q407 504 390 490T346 475Z" horiz-adv-x="448" unicode="&#x201c;"/><glyph d="M58 475 20 521Q59 539 84 562T109 602Q109 615 98 625T78 643Q56 661 49 673T41 698Q41 722 58 736T102 751Q130 751 152 737T188 697 201 638Q201 612 190 587T160 540 114 501 58 475ZM262 475 224 521Q263 539 288 562T313 602Q313 615 302 625T282 643Q260 661 253 673T245 698Q245 722 262 736T306 751Q334 751 356 737T392 697 405 638Q405 612 394 587T364 540 318 501 262 475Z" horiz-adv-x="445" unicode="&#x201d;"/><glyph d="M88-179 50-133Q85-113 107-87T129-42Q129-32 124-23T103 4Q83 23 77 36T71 64Q71 88 88 102T132 117Q157 117 177 103T209 63 221 4Q221-26 211-54T183-106 141-149 88-179ZM313-179 275-133Q310-113 332-87T354-42Q354-32 349-23T328 4Q308 23 302 36T296 64Q296 88 313 102T357 117Q382 117 402 103T434 63 446 4Q446-26 436-54T408-106 366-149 313-179Z" horiz-adv-x="492" unicode="&#x201e;"/><glyph d="M173 216Q136 216 105 234T56 283 37 351Q37 389 55 420T104 469 173 488Q211 488 242 470T291 420 310 351Q310 314 292 283T242 234 173 216Z" horiz-adv-x="346" unicode="&#x2022;"/><glyph d="M170 50 11 257V259L169 471 232 426 113 255 114 266 233 95 170 50Z" horiz-adv-x="273" unicode="&#x2039;"/><glyph d="M104 50 41 95 160 266 159 255 40 426 103 471 262 264V262L104 50Z" horiz-adv-x="275" unicode="&#x203a;"/></font>
</defs>
</svg>
